<svg width="16" height="16" viewBox="0 0 16 16" fill="none" xmlns="http://www.w3.org/2000/svg">
<path d="M8.99984 0.446655C8.99984 0.446655 9.49317 2.21332 9.49317 3.64666C9.49317 5.01999 8.59317 6.13666 7.2165 6.13666C5.83984 6.13666 4.79984 5.02332 4.79984 3.64666L4.8165 3.40666C3.4765 5.00999 2.6665 7.07666 2.6665 9.33332C2.6665 12.28 5.05317 14.6667 7.99984 14.6667C10.9465 14.6667 13.3332 12.28 13.3332 9.33332C13.3332 5.73666 11.6032 2.52999 8.99984 0.446655ZM7.8065 12.6667C6.61984 12.6667 5.6565 11.73 5.6565 10.5733C5.6565 9.48999 6.35317 8.72999 7.53317 8.49332C8.71317 8.25666 9.93317 7.68999 10.6098 6.77666C10.8698 7.63666 11.0065 8.54332 11.0065 9.46666C11.0065 11.23 9.57317 12.6667 7.8065 12.6667Z" fill="#E30613"/>
</svg>
