<svg width="16" height="16" viewBox="0 0 16 16" fill="none" xmlns="http://www.w3.org/2000/svg">
<path d="M15.3333 3.66667V13.3333C15.3333 14.8 14.1333 16 12.6667 16H7.79999C7.07999 16 6.39999 15.7133 5.89999 15.2067L0.666656 9.88667C0.666656 9.88667 1.50666 9.06667 1.53332 9.05333C1.67999 8.92667 1.85999 8.86 2.05999 8.86C2.20666 8.86 2.33999 8.9 2.45999 8.96667C2.48666 8.97333 5.33332 10.6067 5.33332 10.6067V2.66667C5.33332 2.11333 5.77999 1.66667 6.33332 1.66667C6.88666 1.66667 7.33332 2.11333 7.33332 2.66667V7.33333H7.99999V1C7.99999 0.446667 8.44666 0 8.99999 0C9.55332 0 9.99999 0.446667 9.99999 1V7.33333H10.6667V1.66667C10.6667 1.11333 11.1133 0.666667 11.6667 0.666667C12.22 0.666667 12.6667 1.11333 12.6667 1.66667V7.33333H13.3333V3.66667C13.3333 3.11333 13.78 2.66667 14.3333 2.66667C14.8867 2.66667 15.3333 3.11333 15.3333 3.66667Z" fill="white"/>
</svg>
